<svg width="24" height="24" viewBox="0 0 24 24" fill="none" xmlns="http://www.w3.org/2000/svg">
<path d="M11.6636 13.2788L15.7366 9.20553C15.8751 9.0672 16.0491 8.99636 16.2588 8.99303C16.4683 8.98986 16.6456 9.0607 16.7906 9.20553C16.9354 9.35053 17.0078 9.5262 17.0078 9.73253C17.0078 9.93886 16.9354 10.1145 16.7906 10.2595L12.2963 14.7538C12.2026 14.8473 12.1039 14.9133 12.0001 14.9518C11.8962 14.9903 11.7841 15.0095 11.6636 15.0095C11.5431 15.0095 11.4309 14.9903 11.3271 14.9518C11.2232 14.9133 11.1245 14.8473 11.0308 14.7538L6.53656 10.2595C6.39823 10.121 6.32739 9.94695 6.32406 9.73728C6.3209 9.52778 6.39173 9.35053 6.53656 9.20553C6.68156 9.0607 6.85723 8.98828 7.06356 8.98828C7.26989 8.98828 7.44556 9.0607 7.59056 9.20553L11.6636 13.2788Z" fill="white"/>
</svg>
