<svg width="24" height="24" viewBox="0 0 24 24" fill="none" xmlns="http://www.w3.org/2000/svg">
<path d="M4.30775 21.4997C3.80258 21.4997 3.375 21.3247 3.025 20.9747C2.675 20.6247 2.5 20.1971 2.5 19.692V10.3075C2.5 9.8023 2.675 9.37472 3.025 9.02472C3.375 8.67472 3.80258 8.49972 4.30775 8.49972H19.6923C20.1974 8.49972 20.625 8.67472 20.975 9.02472C21.325 9.37472 21.5 9.8023 21.5 10.3075V19.692C21.5 20.1971 21.325 20.6247 20.975 20.9747C20.625 21.3247 20.1974 21.4997 19.6923 21.4997H4.30775ZM4.30775 19.9997H19.6923C19.7693 19.9997 19.8398 19.9676 19.9038 19.9035C19.9679 19.8395 20 19.769 20 19.692V10.3075C20 10.2305 19.9679 10.16 19.9038 10.096C19.8398 10.0318 19.7693 9.99972 19.6923 9.99972H4.30775C4.23075 9.99972 4.16025 10.0318 4.09625 10.096C4.03208 10.16 4 10.2305 4 10.3075V19.692C4 19.769 4.03208 19.8395 4.09625 19.9035C4.16025 19.9676 4.23075 19.9997 4.30775 19.9997ZM5 7.11522C4.78717 7.11522 4.609 7.04339 4.4655 6.89972C4.32183 6.75622 4.25 6.57805 4.25 6.36522C4.25 6.15239 4.32183 5.97414 4.4655 5.83047C4.609 5.68697 4.78717 5.61522 5 5.61522H19C19.2128 5.61522 19.391 5.68697 19.5345 5.83047C19.6782 5.97414 19.75 6.15239 19.75 6.36522C19.75 6.57805 19.6782 6.75622 19.5345 6.89972C19.391 7.04339 19.2128 7.11522 19 7.11522H5ZM8 4.23047C7.78717 4.23047 7.609 4.15872 7.4655 4.01522C7.32183 3.87155 7.25 3.6933 7.25 3.48047C7.25 3.26764 7.32183 3.08947 7.4655 2.94597C7.609 2.8023 7.78717 2.73047 8 2.73047H16C16.2128 2.73047 16.391 2.8023 16.5345 2.94597C16.6782 3.08947 16.75 3.26764 16.75 3.48047C16.75 3.6933 16.6782 3.87155 16.5345 4.01522C16.391 4.15872 16.2128 4.23047 16 4.23047H8Z" fill="white"/>
<path d="M10.5642 16.6429L10.1589 18.2527C10.1416 18.3294 10.1047 18.3898 10.0481 18.4338C9.99158 18.4779 9.92256 18.5 9.84107 18.5C9.73274 18.5 9.64402 18.4568 9.57492 18.3705C9.5059 18.2842 9.48628 18.1893 9.51608 18.0857L9.87671 16.6429H8.5535C8.43743 16.6429 8.34415 16.5985 8.27365 16.5098C8.20308 16.4211 8.18269 16.3211 8.21248 16.2098C8.23276 16.1282 8.27427 16.064 8.33703 16.017C8.39986 15.97 8.47202 15.9464 8.5535 15.9464H10.0508L10.524 14.0536H9.20083C9.08476 14.0536 8.99147 14.0092 8.92098 13.9205C8.85041 13.8319 8.83002 13.7318 8.85981 13.6205C8.88001 13.539 8.92152 13.4748 8.98435 13.4277C9.04711 13.3807 9.11927 13.3571 9.20083 13.3571H10.6981L11.1036 11.7473C11.1208 11.6706 11.1577 11.6102 11.2142 11.5662C11.2708 11.5221 11.3398 11.5 11.4214 11.5C11.5297 11.5 11.6184 11.5432 11.6874 11.6295C11.7564 11.7158 11.7761 11.8107 11.7464 11.9143L11.3856 13.3571H13.3053L13.7106 11.7473C13.7279 11.6706 13.7648 11.6102 13.8214 11.5662C13.8779 11.5221 13.947 11.5 14.0284 11.5C14.1368 11.5 14.2255 11.5432 14.2946 11.6295C14.3636 11.7158 14.3832 11.8107 14.3534 11.9143L13.9928 13.3571H15.316C15.4321 13.3571 15.5254 13.4015 15.5959 13.4902C15.6664 13.5789 15.6868 13.6789 15.657 13.7902C15.6368 13.8718 15.5952 13.936 15.5325 13.983C15.4697 14.03 15.3975 14.0536 15.316 14.0536H13.8187L13.3455 15.9464H14.6687C14.7848 15.9464 14.878 15.9908 14.9485 16.0795C15.0191 16.1681 15.0395 16.2682 15.0097 16.3795C14.9895 16.461 14.948 16.5252 14.8852 16.5723C14.8224 16.6193 14.7503 16.6429 14.6687 16.6429H13.1714L12.7659 18.2527C12.7487 18.3294 12.7118 18.3898 12.6553 18.4338C12.5988 18.4779 12.5297 18.5 12.4481 18.5C12.3398 18.5 12.2511 18.4568 12.1821 18.3705C12.1131 18.2842 12.0934 18.1893 12.1231 18.0857L12.4839 16.6429H10.5642ZM10.7383 15.9464H12.658L13.1312 14.0536H11.2115L10.7383 15.9464Z" fill="white" stroke="white" stroke-width="0.4"/>
</svg>
