<svg width="32" height="32" viewBox="0 0 32 32" fill="none" xmlns="http://www.w3.org/2000/svg">
<path d="M15.9853 23.487C16.366 23.487 16.6875 23.3556 16.95 23.093C17.2124 22.8301 17.3436 22.5082 17.3436 22.1273C17.3436 21.7466 17.2122 21.4251 16.9493 21.1626C16.6864 20.9004 16.3646 20.7693 15.984 20.7693C15.6033 20.7693 15.2818 20.9008 15.0193 21.1636C14.7569 21.4265 14.6256 21.7483 14.6256 22.129C14.6256 22.5096 14.7571 22.8312 15.02 23.0936C15.2829 23.3559 15.6046 23.487 15.9853 23.487ZM16.0023 28.6666C14.2503 28.6666 12.6035 28.3342 11.062 27.6693C9.52042 27.0044 8.17954 26.1021 7.03931 24.9623C5.89909 23.8225 4.99631 22.4822 4.33098 20.9413C3.66587 19.4004 3.33331 17.7541 3.33331 16.0023C3.33331 14.2503 3.66576 12.6035 4.33065 11.062C4.99554 9.52042 5.89787 8.17954 7.03765 7.03931C8.17742 5.89909 9.51776 4.99631 11.0586 4.33098C12.5995 3.66587 14.2459 3.33331 15.9976 3.33331C17.7496 3.33331 19.3964 3.66576 20.938 4.33065C22.4795 4.99553 23.8204 5.89787 24.9606 7.03765C26.1009 8.17742 27.0036 9.51776 27.669 11.0586C28.3341 12.5995 28.6666 14.2459 28.6666 15.9976C28.6666 17.7496 28.3342 19.3964 27.6693 20.938C27.0044 22.4795 26.1021 23.8204 24.9623 24.9606C23.8225 26.1009 22.4822 27.0036 20.9413 27.669C19.4004 28.3341 17.7541 28.6666 16.0023 28.6666ZM16 26.6666C18.9778 26.6666 21.5 25.6333 23.5666 23.5666C25.6333 21.5 26.6666 18.9778 26.6666 16C26.6666 13.0222 25.6333 10.5 23.5666 8.43331C21.5 6.36665 18.9778 5.33331 16 5.33331C13.0222 5.33331 10.5 6.36665 8.43331 8.43331C6.36665 10.5 5.33331 13.0222 5.33331 16C5.33331 18.9778 6.36665 21.5 8.43331 23.5666C10.5 25.6333 13.0222 26.6666 16 26.6666ZM16.108 10.2923C16.7231 10.2923 17.2554 10.486 17.705 10.8733C18.1548 11.2606 18.3796 11.7448 18.3796 12.3256C18.3796 12.8145 18.236 13.2521 17.9486 13.6383C17.6615 14.0248 17.3333 14.3846 16.964 14.718C16.48 15.1473 16.0539 15.6196 15.6856 16.135C15.3174 16.6501 15.1205 17.2239 15.095 17.8563C15.0863 18.0992 15.1718 18.3026 15.3513 18.4666C15.5309 18.6306 15.7402 18.7126 15.9793 18.7126C16.2358 18.7126 16.4529 18.6272 16.6306 18.4563C16.8084 18.2854 16.9221 18.0761 16.9716 17.8283C17.0605 17.3701 17.2499 16.962 17.5396 16.604C17.8294 16.2458 18.1433 15.9052 18.4813 15.5823C18.9673 15.1085 19.3914 14.5921 19.7536 14.033C20.1161 13.4736 20.2973 12.8499 20.2973 12.1616C20.2973 11.1052 19.8811 10.2372 19.0486 9.55765C18.2162 8.87831 17.2444 8.53865 16.1333 8.53865C15.3402 8.53865 14.5923 8.7142 13.8896 9.06531C13.1872 9.41665 12.6402 9.92909 12.2486 10.6026C12.1273 10.8095 12.0884 11.0272 12.132 11.2556C12.1753 11.4843 12.2925 11.6579 12.4836 11.7763C12.727 11.9116 12.9769 11.9503 13.2333 11.8923C13.4898 11.8341 13.7076 11.688 13.887 11.454C14.1572 11.1035 14.4842 10.8223 14.868 10.6103C15.2518 10.3983 15.6651 10.2923 16.108 10.2923Z" fill="#D4D3D3"/>
</svg>
