<svg width="40" height="40" viewBox="0 0 40 40" fill="none" xmlns="http://www.w3.org/2000/svg">
<rect width="40" height="40" rx="20" fill="white" fill-opacity="0.2"/>
<path d="M18.7493 21.2493H10.416C10.0618 21.2493 9.76504 21.1295 9.5256 20.8898C9.28588 20.65 9.16602 20.3531 9.16602 19.9989C9.16602 19.6445 9.28588 19.3477 9.5256 19.1085C9.76504 18.8691 10.0618 18.7493 10.416 18.7493H18.7493V10.416C18.7493 10.0618 18.8692 9.76504 19.1089 9.5256C19.3487 9.28588 19.6456 9.16602 19.9998 9.16602C20.3542 9.16602 20.651 9.28588 20.8902 9.5256C21.1296 9.76504 21.2493 10.0618 21.2493 10.416V18.7493H29.5827C29.9368 18.7493 30.2337 18.8692 30.4731 19.1089C30.7128 19.3487 30.8327 19.6456 30.8327 19.9998C30.8327 20.3542 30.7128 20.651 30.4731 20.8902C30.2337 21.1296 29.9368 21.2493 29.5827 21.2493H21.2493V29.5827C21.2493 29.9368 21.1295 30.2337 20.8898 30.4731C20.65 30.7128 20.3531 30.8327 19.9989 30.8327C19.6445 30.8327 19.3477 30.7128 19.1085 30.4731C18.8691 30.2337 18.7493 29.9368 18.7493 29.5827V21.2493Z" fill="#C7C7C7"/>
</svg>
