<svg width="40" height="40" viewBox="0 0 40 40" fill="none" xmlns="http://www.w3.org/2000/svg">
<rect width="40" height="40" rx="8" fill="black"/>
<g clip-path="url(#clip0_80_18411)">
<path d="M6.83167 15.8882L8.71983 14H6.83167H5.88816L4.94351 14.9435V15.8882V18.7198L4 19.6633L4.94351 20.6069V23.4385V24.3832L5.88816 25.3267H6.83167H8.71983L6.83167 23.4385V15.8882Z" fill="#FFE000"/>
<path d="M13.6284 15.8882L11.7402 14H13.6284H14.5719L15.5166 14.9435V15.8882V18.7198L16.4601 19.6633L15.5166 20.6069V23.4385V24.3832L14.5719 25.3267H13.6284H11.7402L13.6284 23.4385V15.8882Z" fill="#FFE000"/>
<path d="M20.4021 18.3228C20.5607 18.3228 20.6841 18.2798 20.7713 18.1948C20.8586 18.1087 20.9016 17.9898 20.8993 17.8358H21.9595C21.9595 18.2311 21.8168 18.5561 21.5314 18.8098C21.2459 19.0636 20.8789 19.1904 20.4293 19.1904C19.9015 19.1904 19.4846 19.0262 19.1811 18.6966C18.8764 18.367 18.7246 17.9116 18.7246 17.3294V17.283C18.7246 16.9183 18.7926 16.5966 18.9274 16.318C19.0621 16.0393 19.2581 15.8241 19.5129 15.6746C19.7678 15.5251 20.0702 15.4492 20.4191 15.4492C20.8914 15.4492 21.2663 15.5795 21.5438 15.84C21.8213 16.1005 21.9595 16.4528 21.9595 16.8968H20.8993C20.8993 16.7099 20.854 16.566 20.7623 16.4664C20.6705 16.3667 20.5471 16.3157 20.393 16.3157C20.0997 16.3157 19.9286 16.5015 19.8799 16.873C19.8641 16.9908 19.8561 17.1528 19.8561 17.36C19.8561 17.7225 19.9003 17.9739 19.9875 18.1133C20.0747 18.2537 20.2141 18.3239 20.4032 18.3239L20.4021 18.3228Z" fill="white"/>
<path d="M22.3926 17.2856C22.3926 16.9254 22.4628 16.6049 22.6044 16.3228C22.7448 16.0419 22.9476 15.8256 23.2115 15.6738C23.4754 15.5232 23.7858 15.4473 24.1414 15.4473C24.6851 15.4473 25.1132 15.6149 25.427 15.949C25.7407 16.2832 25.8971 16.7385 25.8971 17.315V17.3547C25.8971 17.9176 25.7396 18.3639 25.4259 18.6935C25.111 19.0242 24.6862 19.1885 24.1493 19.1885C23.6125 19.1885 23.2172 19.0344 22.9045 18.7263C22.5908 18.4183 22.422 18.0014 22.3982 17.4736L22.3948 17.2833L22.3926 17.2856ZM23.5241 17.3558C23.5241 17.6888 23.5762 17.9335 23.6816 18.0898C23.7869 18.245 23.9421 18.3231 24.1482 18.3231C24.5514 18.3231 24.7565 18.015 24.7655 17.3989V17.2856C24.7655 16.6388 24.5571 16.3149 24.1414 16.3149C23.7631 16.3149 23.5581 16.5935 23.5275 17.1519L23.5241 17.3558Z" fill="white"/>
<path d="M26.2656 17.2915C26.2656 16.7195 26.3902 16.2699 26.6383 15.9403C26.8863 15.6107 27.2329 15.4464 27.6792 15.4464C28.0031 15.4464 28.2761 15.5733 28.4981 15.827V14H29.6319V19.1231H28.6148L28.5581 18.7357C28.3259 19.0381 28.0303 19.1888 27.6724 19.1888C27.2409 19.1888 26.8988 19.0245 26.6451 18.6949C26.3925 18.3653 26.2656 17.8975 26.2656 17.2904V17.2915ZM27.3972 17.3618C27.3972 18.0017 27.5852 18.3223 27.9612 18.3223C28.2115 18.3223 28.3905 18.2181 28.4981 18.0085V16.6346C28.395 16.4216 28.2183 16.314 27.968 16.314C27.6192 16.314 27.43 16.5938 27.4006 17.1545L27.3972 17.3618Z" fill="white"/>
<path d="M31.9197 19.1896C31.3624 19.1896 30.9116 19.0242 30.5673 18.6946C30.2229 18.3639 30.0508 17.9346 30.0508 17.4056V17.3128C30.0508 16.9435 30.1199 16.6184 30.2569 16.3353C30.394 16.0521 30.5956 15.8346 30.8595 15.6795C31.1234 15.5243 31.4372 15.4473 31.7996 15.4473C32.3093 15.4473 32.7126 15.6047 33.0082 15.9196C33.3038 16.2345 33.4511 16.6728 33.4511 17.2357V17.673H31.2027C31.2435 17.8757 31.3318 18.0343 31.4677 18.1498C31.6037 18.2653 31.7815 18.3231 31.9978 18.3231C32.3558 18.3231 32.6355 18.1985 32.8371 17.9493L33.3536 18.5564C33.2132 18.7501 33.0127 18.9042 32.7545 19.0186C32.4962 19.133 32.2176 19.1907 31.9208 19.1907L31.9197 19.1896ZM31.7917 16.3149C31.461 16.3149 31.2639 16.5324 31.2016 16.9684H32.3422V16.8812C32.3467 16.7011 32.3003 16.5618 32.2051 16.4621C32.11 16.3625 31.9718 16.3138 31.7928 16.3138L31.7917 16.3149Z" fill="white"/>
<path d="M34.4162 18.0312C34.5838 18.0312 34.722 18.0856 34.833 18.1944C34.944 18.3031 34.9995 18.4413 34.9995 18.6112C34.9995 18.7811 34.944 18.9193 34.833 19.028C34.722 19.1367 34.5838 19.1911 34.4162 19.1911C34.2485 19.1911 34.107 19.1367 33.9982 19.0269C33.8884 18.917 33.834 18.7788 33.834 18.6123C33.834 18.4458 33.8884 18.3076 33.9982 18.1978C34.1081 18.0879 34.2474 18.0335 34.4162 18.0335V18.0312Z" fill="white"/>
<path d="M20.3979 23.1444C20.5564 23.1444 20.6788 23.1014 20.766 23.0164C20.8532 22.9315 20.8951 22.8114 20.8928 22.6585H21.9508C21.9508 23.0538 21.808 23.3778 21.5237 23.6304C21.2394 23.8829 20.8725 24.0098 20.4239 24.0098C19.8972 24.0098 19.4815 23.8456 19.178 23.5171C18.8744 23.1886 18.7227 22.7344 18.7227 22.1522V22.1058C18.7227 21.7422 18.7906 21.4205 18.9254 21.1419C19.0602 20.8632 19.255 20.6492 19.5099 20.4997C19.7647 20.3501 20.066 20.2754 20.4137 20.2754C20.8849 20.2754 21.2587 20.4056 21.5351 20.665C21.8114 20.9244 21.9508 21.2767 21.9508 21.7195H20.8928C20.8928 21.5327 20.8475 21.3899 20.7558 21.2903C20.664 21.1906 20.5417 21.1407 20.3877 21.1407C20.0954 21.1407 19.9244 21.3265 19.8757 21.6969C19.8599 21.8147 19.8519 21.9767 19.8519 22.1828C19.8519 22.5441 19.895 22.7956 19.9822 22.9349C20.0694 23.0742 20.2076 23.1444 20.3979 23.1444Z" fill="white"/>
<path d="M24.5259 23.943C24.4863 23.8693 24.45 23.7617 24.4183 23.6202C24.211 23.8795 23.92 24.0098 23.5473 24.0098C23.2052 24.0098 22.9153 23.9067 22.6763 23.7017C22.4373 23.4967 22.3184 23.2385 22.3184 22.9281C22.3184 22.5373 22.4633 22.2428 22.7533 22.0424C23.0433 21.843 23.4658 21.7433 24.0196 21.7433H24.3674V21.553C24.3674 21.2212 24.2235 21.0547 23.9358 21.0547C23.6674 21.0547 23.5337 21.1861 23.5337 21.4488H22.4056C22.4056 21.1011 22.5551 20.8179 22.853 20.6016C23.1509 20.3841 23.5314 20.2754 23.9936 20.2754C24.4557 20.2754 24.8204 20.3875 25.0889 20.6118C25.3573 20.8361 25.4944 21.143 25.5012 21.5338V23.1274C25.5057 23.4582 25.5567 23.7108 25.6552 23.8863V23.943H24.5271H24.5259ZM23.8191 23.2113C23.9596 23.2113 24.0763 23.1818 24.1691 23.1218C24.262 23.0618 24.3277 22.9938 24.3685 22.919V22.3436H24.04C23.647 22.3436 23.451 22.5192 23.451 22.8692C23.451 22.9711 23.4861 23.0538 23.5552 23.1173C23.6243 23.1807 23.7127 23.2124 23.8203 23.2124L23.8191 23.2113Z" fill="white"/>
<path d="M27.0805 20.3403L27.1179 20.7628C27.375 20.4365 27.7194 20.2734 28.1532 20.2734C28.6108 20.2734 28.92 20.4547 29.0808 20.816C29.3266 20.4547 29.6811 20.2734 30.1455 20.2734C30.8795 20.2734 31.2578 20.7152 31.2771 21.5975V23.941H30.1455V21.6678C30.1455 21.4831 30.1138 21.3495 30.0515 21.2645C29.9892 21.1796 29.8748 21.1377 29.7095 21.1377C29.4863 21.1377 29.3198 21.2362 29.2099 21.4344L29.2133 21.4809V23.9399H28.0818V21.6734C28.0818 21.4843 28.0512 21.3483 27.9912 21.2645C27.9312 21.1807 27.8156 21.1377 27.6457 21.1377C27.4294 21.1377 27.264 21.2362 27.1496 21.4344V23.941H26.0215V20.3403H27.0794H27.0805Z" fill="white"/>
<path d="M34.9995 22.1692C34.9995 22.7288 34.8726 23.175 34.6189 23.5092C34.3652 23.8433 34.0231 24.0098 33.5927 24.0098C33.2597 24.0098 32.9867 23.8886 32.7727 23.6473V25.3282H31.6445V20.3422H32.699L32.733 20.6752C32.9494 20.409 33.2337 20.2754 33.5871 20.2754C34.0333 20.2754 34.3811 20.4385 34.628 20.7658C34.876 21.0932 34.9995 21.5428 34.9995 22.1148V22.1681V22.1692ZM33.8714 22.099C33.8714 21.4602 33.6833 21.1407 33.3084 21.1407C33.04 21.1407 32.8621 21.2359 32.7727 21.4273V22.8454C32.8712 23.0448 33.0513 23.1444 33.3152 23.1444C33.6743 23.1444 33.86 22.8364 33.8714 22.219V22.099Z" fill="white"/>
</g>
<defs>
<clipPath id="clip0_80_18411">
<rect width="31" height="11.3267" fill="white" transform="translate(4 14)"/>
</clipPath>
</defs>
</svg>
