<svg width="20" height="20" viewBox="0 0 20 20" fill="none" xmlns="http://www.w3.org/2000/svg">
<path d="M4.5 19.5V15.423C3.86933 15.1525 3.30817 14.7942 2.8165 14.348C2.32483 13.9018 1.9065 13.3948 1.5615 12.827C1.21667 12.259 0.953583 11.6493 0.77225 10.998C0.59075 10.3468 0.5 9.68083 0.5 9C0.5 6.50767 1.38658 4.46792 3.15975 2.88075C4.93292 1.29358 7.21275 0.5 9.99925 0.5C12.7856 0.5 15.0657 1.29358 16.8395 2.88075C18.6132 4.46792 19.5 6.50767 19.5 9C19.5 9.68083 19.4093 10.3468 19.2278 10.998C19.0464 11.6493 18.7833 12.259 18.4385 12.827C18.0935 13.3948 17.6752 13.9018 17.1835 14.348C16.6918 14.7942 16.1307 15.1531 15.5 15.4248V19.5H4.5ZM6 18H7.2115V16.2308H8.98075V18H11.0193V16.2308H12.7885V18H14V14.45C14.6205 14.2808 15.1766 14.0196 15.6683 13.6663C16.1599 13.3131 16.5787 12.8963 16.9245 12.416C17.2703 11.9355 17.5361 11.4053 17.7218 10.8255C17.9072 10.2457 18 9.63717 18 9C18 6.91667 17.2625 5.22917 15.7875 3.9375C14.3125 2.64583 12.3833 2 10 2C7.61667 2 5.6875 2.64583 4.2125 3.9375C2.7375 5.22917 2 6.91667 2 9C2 9.63717 2.09275 10.2457 2.27825 10.8255C2.46392 11.4053 2.72967 11.9355 3.0755 12.416C3.42133 12.8963 3.84267 13.3131 4.3395 13.6663C4.83617 14.0196 5.38967 14.2808 6 14.45V18ZM8.59625 13H11.4038L10 10.1923L8.59625 13ZM6.50175 10.8077C6.99925 10.8077 7.42458 10.6306 7.77775 10.2762C8.13108 9.92192 8.30775 9.49592 8.30775 8.99825C8.30775 8.50075 8.13058 8.07542 7.77625 7.72225C7.42192 7.36892 6.99592 7.19225 6.49825 7.19225C6.00075 7.19225 5.57542 7.36942 5.22225 7.72375C4.86892 8.07808 4.69225 8.50408 4.69225 9.00175C4.69225 9.49925 4.86942 9.92458 5.22375 10.2778C5.57808 10.6311 6.00408 10.8077 6.50175 10.8077ZM13.5017 10.8077C13.9993 10.8077 14.4246 10.6306 14.7778 10.2762C15.1311 9.92192 15.3077 9.49592 15.3077 8.99825C15.3077 8.50075 15.1306 8.07542 14.7762 7.72225C14.4219 7.36892 13.9959 7.19225 13.4983 7.19225C13.0007 7.19225 12.5754 7.36942 12.2223 7.72375C11.8689 8.07808 11.6923 8.50408 11.6923 9.00175C11.6923 9.49925 11.8694 9.92458 12.2238 10.2778C12.5781 10.6311 13.0041 10.8077 13.5017 10.8077Z" fill="white"/>
</svg>
