<svg width="26" height="6" viewBox="0 0 26 6" fill="none" xmlns="http://www.w3.org/2000/svg">
<path d="M3.38477 5.5C2.69727 5.5 2.10879 5.25514 1.61935 4.76542C1.12963 4.27597 0.884766 3.6875 0.884766 3C0.884766 2.3125 1.12963 1.72403 1.61935 1.23458C2.10879 0.744861 2.69727 0.5 3.38477 0.5C4.07227 0.5 4.66088 0.744861 5.1506 1.23458C5.64004 1.72403 5.88477 2.3125 5.88477 3C5.88477 3.6875 5.64004 4.27597 5.1506 4.76542C4.66088 5.25514 4.07227 5.5 3.38477 5.5ZM13.0002 5.5C12.3127 5.5 11.7242 5.25514 11.2348 4.76542C10.745 4.27597 10.5002 3.6875 10.5002 3C10.5002 2.3125 10.745 1.72403 11.2348 1.23458C11.7242 0.744861 12.3127 0.5 13.0002 0.5C13.6877 0.5 14.2762 0.744861 14.7656 1.23458C15.2553 1.72403 15.5002 2.3125 15.5002 3C15.5002 3.6875 15.2553 4.27597 14.7656 4.76542C14.2762 5.25514 13.6877 5.5 13.0002 5.5ZM22.6156 5.5C21.9281 5.5 21.3395 5.25514 20.8498 4.76542C20.3603 4.27597 20.1156 3.6875 20.1156 3C20.1156 2.3125 20.3603 1.72403 20.8498 1.23458C21.3395 0.744861 21.9281 0.5 22.6156 0.5C23.3031 0.5 23.8916 0.744861 24.381 1.23458C24.8707 1.72403 25.1156 2.3125 25.1156 3C25.1156 3.6875 24.8707 4.27597 24.381 4.76542C23.8916 5.25514 23.3031 5.5 22.6156 5.5Z" fill="#C7C7C7"/>
</svg>
