<svg width="24" height="16" viewBox="0 0 24 16" fill="none" xmlns="http://www.w3.org/2000/svg">
<mask id="mask0_2003_879" style="mask-type:alpha" maskUnits="userSpaceOnUse" x="0" y="0" width="24" height="16">
<rect width="24" height="16" transform="matrix(-1 0 0 1 24 0)" fill="#D9D9D9"/>
</mask>
<g mask="url(#mask0_2003_879)">
<path d="M9.04445 10.8L4.50556 6.5C4.11852 6.13333 3.62593 5.95 3.02778 5.95C2.42963 5.95 1.93704 6.13333 1.55 6.5C1.16296 6.86667 0.969445 7.33333 0.969445 7.9C0.969445 8.46667 1.16296 8.93333 1.55 9.3L7.56667 15C7.98889 15.4 8.48148 15.6 9.04445 15.6C9.60741 15.6 10.1 15.4 10.5222 15L22.45 3.7C22.837 3.33333 23.0306 2.86667 23.0306 2.3C23.0306 1.73333 22.837 1.26667 22.45 0.900001C22.063 0.533334 21.5704 0.35 20.9722 0.35C20.3741 0.35 19.8815 0.533334 19.4944 0.900001L9.04445 10.8ZM-2.77778 26C-3.93889 26 -4.93287 25.6083 -5.75972 24.825C-6.58657 24.0417 -7 23.1 -7 22V-6C-7 -7.1 -6.58657 -8.04167 -5.75972 -8.825C-4.93287 -9.60833 -3.93889 -10 -2.77778 -10H26.7778C27.9389 -10 28.9329 -9.60833 29.7597 -8.825C30.5866 -8.04167 31 -7.1 31 -6V22C31 23.1 30.5866 24.0417 29.7597 24.825C28.9329 25.6083 27.9389 26 26.7778 26H-2.77778ZM-2.77778 22H26.7778V-6H-2.77778V22Z" fill="#491449"/>
</g>
</svg>
