<svg width="14" height="14" viewBox="0 0 14 14" fill="none" xmlns="http://www.w3.org/2000/svg">
<path d="M4.53977 9.94763L3.81227 12.837C3.7813 12.9748 3.71505 13.0832 3.61352 13.1622C3.51199 13.2414 3.38811 13.281 3.24186 13.281C3.04741 13.281 2.88818 13.2035 2.76415 13.0485C2.64026 12.8936 2.60505 12.7233 2.65852 12.5374L3.30581 9.94763H0.930814C0.722481 9.94763 0.55505 9.86805 0.428523 9.70888C0.301856 9.54957 0.265259 9.37006 0.318731 9.17034C0.35512 9.02395 0.429634 8.9086 0.542272 8.8243C0.65505 8.73985 0.784564 8.69763 0.930814 8.69763H3.61831L4.46769 5.30013H2.09269C1.88436 5.30013 1.71693 5.22055 1.5904 5.06138C1.46373 4.90221 1.42713 4.7227 1.48061 4.52284C1.51686 4.37659 1.59137 4.26124 1.70415 4.1768C1.81679 4.09235 1.9463 4.05013 2.09269 4.05013H4.78019L5.5079 1.16076C5.53887 1.02298 5.60505 0.914574 5.70644 0.835546C5.80797 0.756379 5.93193 0.716797 6.07831 0.716797C6.27276 0.716797 6.43193 0.794296 6.55581 0.949296C6.6797 1.10416 6.71498 1.27451 6.66165 1.46034L6.01415 4.05013H9.45977L10.1873 1.16076C10.2182 1.02298 10.2845 0.914574 10.386 0.835546C10.4876 0.756379 10.6114 0.716797 10.7577 0.716797C10.9521 0.716797 11.1114 0.794296 11.2354 0.949296C11.3593 1.10416 11.3945 1.27451 11.341 1.46034L10.6937 4.05013H13.0687C13.2771 4.05013 13.4445 4.12971 13.571 4.28888C13.6977 4.44818 13.7343 4.6277 13.6808 4.82742C13.6444 4.97381 13.5699 5.08916 13.4573 5.17346C13.3445 5.25791 13.215 5.30013 13.0687 5.30013H10.3812L9.53186 8.69763H11.9069C12.1152 8.69763 12.2826 8.77721 12.4091 8.93638C12.5358 9.09555 12.5724 9.27506 12.5189 9.47492C12.4827 9.62117 12.4082 9.73652 12.2954 9.82096C12.1828 9.90541 12.0532 9.94763 11.9069 9.94763H9.21936L8.49165 12.837C8.46068 12.9748 8.3945 13.0832 8.29311 13.1622C8.19158 13.2414 8.06762 13.281 7.92123 13.281C7.72679 13.281 7.56762 13.2035 7.44373 13.0485C7.31984 12.8936 7.28456 12.7233 7.3379 12.5374L7.9854 9.94763H4.53977ZM4.85227 8.69763H8.2979L9.14727 5.30013H5.70165L4.85227 8.69763Z" fill="#D4D3D3"/>
</svg>
