<svg width="20" height="20" viewBox="0 0 20 20" fill="none" xmlns="http://www.w3.org/2000/svg">
<path d="M3.83093 11.0007L10.7233 17.8931C10.9215 18.0913 11.0194 18.3233 11.0169 18.5891C11.0143 18.8548 10.9096 19.0912 10.7029 19.2981C10.496 19.4912 10.2618 19.5912 10.0003 19.5981C9.73871 19.6049 9.50449 19.5049 9.2976 19.2981L0.84393 10.8444C0.719041 10.7195 0.631041 10.5878 0.57993 10.4494C0.528596 10.3109 0.50293 10.1614 0.50293 10.0007C0.50293 9.84006 0.528596 9.6905 0.57993 9.55206C0.631041 9.41361 0.719041 9.28195 0.84393 9.15706L9.2976 0.703391C9.48226 0.518724 9.71093 0.42428 9.9836 0.420057C10.2563 0.415835 10.496 0.51028 10.7029 0.703391C10.9096 0.91028 11.0129 1.14784 11.0129 1.41606C11.0129 1.6845 10.9096 1.92217 10.7029 2.12906L3.83093 9.00072H19.0003C19.284 9.00072 19.5216 9.0965 19.7129 9.28806C19.9045 9.47939 20.0003 9.71694 20.0003 10.0007C20.0003 10.2845 19.9045 10.5221 19.7129 10.7134C19.5216 10.9049 19.284 11.0007 19.0003 11.0007H3.83093Z" fill="white"/>
</svg>
