<svg width="18" height="12" viewBox="0 0 18 12" fill="none" xmlns="http://www.w3.org/2000/svg">
<path d="M8.02875 11.5C7.81625 11.5 7.63817 11.4281 7.4945 11.2843C7.35067 11.1404 7.27875 10.9622 7.27875 10.7498C7.27875 10.5371 7.35067 10.359 7.4945 10.2155C7.63817 10.0718 7.81625 10 8.02875 10H9.9615C10.174 10 10.3522 10.0719 10.496 10.2158C10.6397 10.3596 10.7115 10.5378 10.7115 10.7503C10.7115 10.9629 10.6397 11.141 10.496 11.2845C10.3522 11.4282 10.174 11.5 9.9615 11.5H8.02875ZM4.15375 6.75C3.94125 6.75 3.76317 6.67808 3.6195 6.53425C3.47583 6.39042 3.404 6.21225 3.404 5.99975C3.404 5.78708 3.47583 5.609 3.6195 5.4655C3.76317 5.32183 3.94125 5.25 4.15375 5.25H13.8365C14.049 5.25 14.2272 5.32192 14.371 5.46575C14.5147 5.60958 14.5865 5.78775 14.5865 6.00025C14.5865 6.21292 14.5147 6.391 14.371 6.5345C14.2272 6.67817 14.049 6.75 13.8365 6.75H4.15375ZM1.25 2C1.0375 2 0.859417 1.92808 0.71575 1.78425C0.571917 1.64042 0.5 1.46225 0.5 1.24975C0.5 1.03708 0.571917 0.859 0.71575 0.7155C0.859417 0.571833 1.0375 0.5 1.25 0.5H16.75C16.9625 0.5 17.1406 0.571917 17.2843 0.71575C17.4281 0.859583 17.5 1.03775 17.5 1.25025C17.5 1.46292 17.4281 1.641 17.2843 1.7845C17.1406 1.92817 16.9625 2 16.75 2H1.25Z" fill="#D4D3D3"/>
</svg>
