<svg width="18" height="18" viewBox="0 0 18 18" fill="none" xmlns="http://www.w3.org/2000/svg">
<path d="M6.51955 12.6153C4.81188 12.6153 3.36571 12.023 2.18105 10.8385C0.996547 9.65385 0.404297 8.20768 0.404297 6.50002C0.404297 4.79235 0.996547 3.34618 2.18105 2.16152C3.36571 0.977016 4.81188 0.384766 6.51955 0.384766C8.22721 0.384766 9.67338 0.977016 10.858 2.16152C12.0425 3.34618 12.6348 4.79235 12.6348 6.50002C12.6348 7.21418 12.515 7.89627 12.2753 8.54627C12.0355 9.19627 11.7155 9.7616 11.3155 10.2423L17.0695 15.9963C17.208 16.1346 17.2789 16.3086 17.282 16.5183C17.2852 16.7279 17.2144 16.9052 17.0695 17.05C16.9247 17.1948 16.749 17.2673 16.5425 17.2673C16.3362 17.2673 16.1606 17.1948 16.0158 17.05L10.2618 11.296C9.7618 11.7088 9.1868 12.0319 8.5368 12.2653C7.8868 12.4986 7.21438 12.6153 6.51955 12.6153ZM6.51955 11.1155C7.80805 11.1155 8.89938 10.6683 9.79355 9.77402C10.6879 8.87985 11.135 7.78852 11.135 6.50002C11.135 5.21152 10.6879 4.12018 9.79355 3.22601C8.89938 2.33168 7.80805 1.88452 6.51955 1.88452C5.23105 1.88452 4.13971 2.33168 3.24555 3.22601C2.35121 4.12018 1.90405 5.21152 1.90405 6.50002C1.90405 7.78852 2.35121 8.87985 3.24555 9.77402C4.13971 10.6683 5.23105 11.1155 6.51955 11.1155Z" fill="#EFE6EF"/>
</svg>
