<svg width="16" height="20" viewBox="0 0 16 20" fill="none" xmlns="http://www.w3.org/2000/svg">
<path d="M0.765543 16.7241C0.548639 16.7241 0.366865 16.6507 0.220221 16.5041C0.0734072 16.3573 0 16.1753 0 15.9583C0 15.7414 0.0734072 15.5596 0.220221 15.4129C0.366865 15.2665 0.548639 15.1932 0.765543 15.1932H1.84521V7.57684C1.84521 6.20413 2.2689 4.99041 3.11627 3.93566C3.96347 2.88091 5.05122 2.2063 6.37953 1.91182V1.27591C6.37953 0.921544 6.50346 0.620261 6.75133 0.372055C6.99919 0.124018 7.30014 0 7.65416 0C8.00835 0 8.30972 0.124018 8.55826 0.372055C8.80698 0.620261 8.93134 0.921544 8.93134 1.27591V1.91182C10.2596 2.2063 11.3474 2.88091 12.1946 3.93566C13.042 4.99041 13.4657 6.20413 13.4657 7.57684V15.1932H14.5453C14.7622 15.1932 14.944 15.2666 15.0906 15.4132C15.2375 15.56 15.3109 15.742 15.3109 15.959C15.3109 16.1759 15.2375 16.3577 15.0906 16.5044C14.944 16.6508 14.7622 16.7241 14.5453 16.7241H0.765543ZM7.65365 19.59C7.14584 19.59 6.71169 19.4093 6.3512 19.048C5.99055 18.6867 5.81022 18.2523 5.81022 17.7448H9.50065C9.50065 18.254 9.31981 18.6888 8.95813 19.0493C8.59646 19.4098 8.16163 19.59 7.65365 19.59ZM3.3763 15.1932H11.9346V7.57684C11.9346 6.39518 11.5168 5.38662 10.6814 4.55116C9.84574 3.71552 8.83709 3.29771 7.65543 3.29771C6.47377 3.29771 5.46513 3.71552 4.6295 4.55116C3.79403 5.38662 3.3763 6.39518 3.3763 7.57684V15.1932Z" fill="#fff"/>
</svg>
