<svg width="19" height="17" viewBox="0 0 19 17" fill="none" xmlns="http://www.w3.org/2000/svg">
<path d="M4.32569 14.2929C4.08056 14.2929 3.87502 14.21 3.7091 14.0443C3.54334 13.8785 3.46046 13.6731 3.46046 13.4279V11.961H15.5625L15.8728 12.2713V3.42281H17.3397C17.5848 3.42281 17.7903 3.50569 17.956 3.67145C18.122 3.83737 18.2049 4.04282 18.2049 4.2878V15.617C18.2049 16.0112 18.024 16.2849 17.6622 16.4383C17.3005 16.5917 16.9805 16.5291 16.7021 16.2508L14.7445 14.2929H4.32569ZM3.46046 10.0051L1.50286 11.963C1.22447 12.2412 0.904436 12.3037 0.542759 12.1505C0.18092 11.9971 0 11.7233 0 11.329V0.865237C0 0.620099 0.0829623 0.414567 0.248887 0.248642C0.414649 0.0828804 0.620098 0 0.865237 0H13.0519C13.297 0 13.5025 0.0828804 13.6682 0.248642C13.834 0.414567 13.9169 0.620099 13.9169 0.865237V9.14012C13.9169 9.38509 13.834 9.59054 13.6682 9.75647C13.5025 9.92223 13.297 10.0051 13.0519 10.0051H3.46046ZM12.45 8.53819V1.46692H1.46692V9.21542L2.14414 8.53819H12.45Z" fill="#fff"/>
</svg>
