<svg width="20" height="20" viewBox="0 0 20 20" fill="none" xmlns="http://www.w3.org/2000/svg">
<path fill-rule="evenodd" clip-rule="evenodd" d="M1.025 18.9747C1.375 19.3247 1.80258 19.4997 2.30775 19.4997H17.6923C18.1974 19.4997 18.625 19.3247 18.975 18.9747C19.325 18.6247 19.5 18.1971 19.5 17.692V8.30747C19.5 7.8023 19.325 7.37472 18.975 7.02472C18.625 6.67472 18.1974 6.49972 17.6923 6.49972H2.30775C1.80258 6.49972 1.375 6.67472 1.025 7.02472C0.675 7.37472 0.5 7.8023 0.5 8.30747V17.692C0.5 18.1971 0.675 18.6247 1.025 18.9747ZM17.6923 17.9997H2.30775C2.23075 17.9997 2.16025 17.9676 2.09625 17.9035C2.03208 17.8395 2 17.769 2 17.692V8.30747C2 8.23047 2.03208 8.15997 2.09625 8.09597C2.16025 8.0318 2.23075 7.99972 2.30775 7.99972H17.6923C17.7693 7.99972 17.8398 8.0318 17.9038 8.09597C17.9679 8.15997 18 8.23047 18 8.30747V17.692C18 17.769 17.9679 17.8395 17.9038 17.9035C17.8398 17.9676 17.7693 17.9997 17.6923 17.9997ZM2.4655 4.89972C2.609 5.04339 2.78717 5.11522 3 5.11522H17C17.2128 5.11522 17.391 5.04339 17.5345 4.89972C17.6782 4.75622 17.75 4.57805 17.75 4.36522C17.75 4.15239 17.6782 3.97414 17.5345 3.83047C17.391 3.68697 17.2128 3.61522 17 3.61522H3C2.78717 3.61522 2.609 3.68697 2.4655 3.83047C2.32183 3.97414 2.25 4.15239 2.25 4.36522C2.25 4.57805 2.32183 4.75622 2.4655 4.89972ZM5.4655 2.01522C5.609 2.15872 5.78717 2.23047 6 2.23047H14C14.2128 2.23047 14.391 2.15872 14.5345 2.01522C14.6782 1.87155 14.75 1.6933 14.75 1.48047C14.75 1.26764 14.6782 1.08947 14.5345 0.945969C14.391 0.802302 14.2128 0.730469 14 0.730469H6C5.78717 0.730469 5.609 0.802302 5.4655 0.945969C5.32183 1.08947 5.25 1.26764 5.25 1.48047C5.25 1.6933 5.32183 1.87155 5.4655 2.01522ZM8.15985 16.2527L8.56517 14.6429H10.4849L10.1241 16.0857C10.0944 16.1893 10.1141 16.2842 10.1831 16.3705C10.2521 16.4568 10.3408 16.5 10.4491 16.5C10.5307 16.5 10.5997 16.4779 10.6563 16.4338C10.7128 16.3898 10.7497 16.3294 10.7669 16.2527L11.1724 14.6429H12.6697C12.7512 14.6429 12.8234 14.6193 12.8861 14.5723C12.949 14.5252 12.9905 14.461 13.0107 14.3795C13.0405 14.2682 13.0201 14.1681 12.9495 14.0795C12.879 13.9908 12.7857 13.9464 12.6697 13.9464H11.3465L11.8197 12.0536H13.317C13.3985 12.0536 13.4706 12.03 13.5335 11.983C13.5962 11.936 13.6377 11.8718 13.658 11.7902C13.6878 11.6789 13.6674 11.5789 13.5968 11.4902C13.5263 11.4015 13.4331 11.3571 13.317 11.3571H11.9938L12.3544 9.91426C12.3842 9.81072 12.3646 9.71581 12.2956 9.62953C12.2265 9.54318 12.1378 9.5 12.0294 9.5C11.9479 9.5 11.8789 9.52205 11.8224 9.56616C11.7658 9.61019 11.7289 9.67059 11.7116 9.74735L11.3063 11.3571H9.38661L9.74735 9.91426C9.77707 9.81072 9.75741 9.71581 9.68839 9.62953C9.61937 9.54318 9.53069 9.5 9.42235 9.5C9.3408 9.5 9.27173 9.52205 9.21517 9.56616C9.15868 9.61019 9.12181 9.67059 9.10455 9.74735L8.69912 11.3571H7.2018C7.12024 11.3571 7.04809 11.3807 6.98533 11.4277C6.9225 11.4748 6.88098 11.539 6.86079 11.6205C6.831 11.7318 6.85139 11.8319 6.92196 11.9205C6.99245 12.0092 7.08573 12.0536 7.2018 12.0536H8.52501L8.05179 13.9464H6.55448C6.47299 13.9464 6.40084 13.97 6.338 14.017C6.27525 14.064 6.23373 14.1282 6.21346 14.2098C6.18367 14.3211 6.20406 14.4211 6.27463 14.5098C6.34512 14.5985 6.43841 14.6429 6.55448 14.6429H7.87768L7.51705 16.0857C7.48726 16.1893 7.50688 16.2842 7.5759 16.3705C7.645 16.4568 7.73372 16.5 7.84205 16.5C7.92353 16.5 7.99256 16.4779 8.04912 16.4338C8.10569 16.3898 8.1426 16.3294 8.15985 16.2527ZM10.659 13.9464H8.73928L9.2125 12.0536H11.1322L10.659 13.9464Z" fill="white"/>
<path d="M1.025 18.9747L1.16642 18.8333L1.16642 18.8333L1.025 18.9747ZM1.025 7.02472L1.16642 7.16614L1.16642 7.16614L1.025 7.02472ZM2.09625 17.9035L2.23786 17.7622L2.23749 17.7619L2.09625 17.9035ZM2.09625 8.09597L2.23749 8.23757L2.23786 8.23721L2.09625 8.09597ZM17.9038 8.09597L17.7621 8.23721L17.7625 8.23757L17.9038 8.09597ZM17.9038 17.9035L17.7625 17.7619L17.7621 17.7622L17.9038 17.9035ZM2.4655 4.89972L2.607 4.75838L2.60684 4.75822L2.4655 4.89972ZM17.5345 4.89972L17.3932 4.75822L17.393 4.75838L17.5345 4.89972ZM17.5345 3.83047L17.3931 3.97189L17.3931 3.97189L17.5345 3.83047ZM2.4655 3.83047L2.32408 3.68905L2.32408 3.68905L2.4655 3.83047ZM5.4655 2.01522L5.60692 1.8738L5.60692 1.8738L5.4655 2.01522ZM14.5345 2.01522L14.6759 2.15664L14.6759 2.15664L14.5345 2.01522ZM14.5345 0.945969L14.393 1.08731L14.3932 1.08747L14.5345 0.945969ZM5.4655 0.945969L5.60684 1.08747L5.607 1.08731L5.4655 0.945969ZM8.56517 14.6429V14.4429H8.40929L8.37123 14.594L8.56517 14.6429ZM8.15985 16.2527L7.96584 16.2038L7.96472 16.2088L8.15985 16.2527ZM10.4849 14.6429L10.6789 14.6914L10.741 14.4429H10.4849V14.6429ZM10.1241 16.0857L10.3165 16.1409L10.3181 16.1343L10.1241 16.0857ZM10.1831 16.3705L10.3393 16.2456L10.3393 16.2455L10.1831 16.3705ZM10.6563 16.4338L10.5334 16.2761L10.5333 16.2761L10.6563 16.4338ZM10.7669 16.2527L10.5729 16.2038L10.5718 16.2088L10.7669 16.2527ZM11.1724 14.6429V14.4429H11.0165L10.9784 14.594L11.1724 14.6429ZM12.8861 14.5723L12.7663 14.4122L12.7662 14.4123L12.8861 14.5723ZM13.0107 14.3795L12.8174 14.3278L12.8166 14.3314L13.0107 14.3795ZM12.9495 14.0795L12.793 14.2039L12.793 14.204L12.9495 14.0795ZM11.3465 13.9464L11.1524 13.8979L11.0903 14.1464H11.3465V13.9464ZM11.8197 12.0536V11.8536H11.6635L11.6257 12.0051L11.8197 12.0536ZM13.5335 11.983L13.4136 11.8229L13.4136 11.8229L13.5335 11.983ZM13.658 11.7902L13.4648 11.7385L13.4639 11.7419L13.658 11.7902ZM13.5968 11.4902L13.4403 11.6146L13.4403 11.6146L13.5968 11.4902ZM11.9938 11.3571L11.7998 11.3086L11.7376 11.5571H11.9938V11.3571ZM12.3544 9.91426L12.1621 9.85892L12.1604 9.86576L12.3544 9.91426ZM12.2956 9.62953L12.4517 9.5046L12.4517 9.50458L12.2956 9.62953ZM11.8224 9.56616L11.9452 9.72398L11.9453 9.72388L11.8224 9.56616ZM11.7116 9.74735L11.9056 9.7962L11.9068 9.79121L11.7116 9.74735ZM11.3063 11.3571V11.5571H11.4622L11.5002 11.406L11.3063 11.3571ZM9.38661 11.3571L9.19258 11.3086L9.13044 11.5571H9.38661V11.3571ZM9.74735 9.91426L9.555 9.85905L9.55333 9.86575L9.74735 9.91426ZM9.68839 9.62953L9.53216 9.75441L9.53222 9.75447L9.68839 9.62953ZM9.21517 9.56616L9.33812 9.7239L9.33815 9.72388L9.21517 9.56616ZM9.10455 9.74735L9.29856 9.79621L9.29968 9.79121L9.10455 9.74735ZM8.69912 11.3571V11.5571H8.85499L8.89306 11.406L8.69912 11.3571ZM6.98533 11.4277L7.10521 11.5878L7.1053 11.5877L6.98533 11.4277ZM6.86079 11.6205L7.05402 11.6722L7.05491 11.6686L6.86079 11.6205ZM6.92196 11.9205L7.07852 11.7961L7.07845 11.796L6.92196 11.9205ZM8.52501 12.0536L8.71904 12.1021L8.78117 11.8536H8.52501V12.0536ZM8.05179 13.9464V14.1464H8.20795L8.24582 13.9949L8.05179 13.9464ZM6.338 14.017L6.45785 14.1771L6.45788 14.1771L6.338 14.017ZM6.21346 14.2098L6.40669 14.2615L6.40755 14.2581L6.21346 14.2098ZM6.27463 14.5098L6.43119 14.3854L6.43118 14.3854L6.27463 14.5098ZM7.87768 14.6429L8.07172 14.6914L8.13382 14.4429H7.87768V14.6429ZM7.51705 16.0857L7.70937 16.1411L7.71108 16.1342L7.51705 16.0857ZM7.5759 16.3705L7.41973 16.4954L7.41974 16.4954L7.5759 16.3705ZM8.04912 16.4338L7.92627 16.276L7.92614 16.2761L8.04912 16.4338ZM8.73928 13.9464L8.54525 13.8979L8.48312 14.1464H8.73928V13.9464ZM10.659 13.9464V14.1464H10.8151L10.853 13.9949L10.659 13.9464ZM9.2125 12.0536V11.8536H9.05634L9.01847 12.0051L9.2125 12.0536ZM11.1322 12.0536L11.3262 12.1021L11.3883 11.8536H11.1322V12.0536ZM2.30775 19.2997C1.8544 19.2997 1.47806 19.1449 1.16642 18.8333L0.883579 19.1161C1.27194 19.5045 1.75076 19.6997 2.30775 19.6997V19.2997ZM17.6923 19.2997H2.30775V19.6997H17.6923V19.2997ZM18.8336 18.8333C18.5219 19.1449 18.1456 19.2997 17.6923 19.2997V19.6997C18.2492 19.6997 18.7281 19.5045 19.1164 19.1161L18.8336 18.8333ZM19.3 17.692C19.3 18.1453 19.1452 18.5217 18.8336 18.8333L19.1164 19.1161C19.5048 18.7278 19.7 18.249 19.7 17.692H19.3ZM19.3 8.30747V17.692H19.7V8.30747H19.3ZM18.8336 7.16614C19.1452 7.47778 19.3 7.85412 19.3 8.30747H19.7C19.7 7.75048 19.5048 7.27166 19.1164 6.8833L18.8336 7.16614ZM17.6923 6.69972C18.1456 6.69972 18.5219 6.8545 18.8336 7.16614L19.1164 6.8833C18.7281 6.49493 18.2492 6.29972 17.6923 6.29972V6.69972ZM2.30775 6.69972H17.6923V6.29972H2.30775V6.69972ZM1.16642 7.16614C1.47806 6.85451 1.8544 6.69972 2.30775 6.69972V6.29972C1.75076 6.29972 1.27194 6.49493 0.883579 6.8833L1.16642 7.16614ZM0.7 8.30747C0.7 7.85412 0.854786 7.47778 1.16642 7.16614L0.883579 6.8833C0.495214 7.27166 0.3 7.75048 0.3 8.30747H0.7ZM0.7 17.692V8.30747H0.3V17.692H0.7ZM1.16642 18.8333C0.854786 18.5217 0.7 18.1453 0.7 17.692H0.3C0.3 18.249 0.495214 18.7278 0.883579 19.1161L1.16642 18.8333ZM2.30775 18.1997H17.6923V17.7997H2.30775V18.1997ZM1.95464 18.0447C2.04902 18.1393 2.16828 18.1997 2.30775 18.1997V17.7997C2.29322 17.7997 2.27149 17.796 2.23786 17.7622L1.95464 18.0447ZM1.8 17.692C1.8 17.8314 1.8604 17.9507 1.95501 18.0451L2.23749 17.7619C2.20377 17.7282 2.2 17.7065 2.2 17.692H1.8ZM1.8 8.30747V17.692H2.2V8.30747H1.8ZM1.95501 7.95436C1.8604 8.04873 1.8 8.168 1.8 8.30747H2.2C2.2 8.29294 2.20377 8.27121 2.23749 8.23757L1.95501 7.95436ZM2.30775 7.79972C2.16828 7.79972 2.04901 7.86012 1.95465 7.95473L2.23786 8.23721C2.27149 8.20349 2.29322 8.19972 2.30775 8.19972V7.79972ZM17.6923 7.79972H2.30775V8.19972H17.6923V7.79972ZM18.0454 7.95473C17.951 7.86012 17.8317 7.79972 17.6923 7.79972V8.19972C17.7068 8.19972 17.7285 8.20349 17.7621 8.23721L18.0454 7.95473ZM18.2 8.30747C18.2 8.168 18.1396 8.04873 18.045 7.95436L17.7625 8.23757C17.7962 8.2712 17.8 8.29294 17.8 8.30747H18.2ZM18.2 17.692V8.30747H17.8V17.692H18.2ZM18.045 18.0451C18.1396 17.9507 18.2 17.8314 18.2 17.692H17.8C17.8 17.7065 17.7962 17.7282 17.7625 17.7619L18.045 18.0451ZM17.6923 18.1997C17.8317 18.1997 17.951 18.1393 18.0454 18.0447L17.7621 17.7622C17.7285 17.796 17.7068 17.7997 17.6923 17.7997V18.1997ZM3 4.91522C2.8374 4.91522 2.71102 4.86252 2.607 4.75838L2.324 5.04106C2.50698 5.22425 2.73693 5.31522 3 5.31522V4.91522ZM17 4.91522H3V5.31522H17V4.91522ZM17.393 4.75838C17.289 4.86252 17.1626 4.91522 17 4.91522V5.31522C17.2631 5.31522 17.493 5.22425 17.676 5.04106L17.393 4.75838ZM17.55 4.36522C17.55 4.52782 17.4973 4.65419 17.3932 4.75822L17.6758 5.04122C17.859 4.85824 17.95 4.62829 17.95 4.36522H17.55ZM17.3931 3.97189C17.4973 4.07611 17.55 4.20262 17.55 4.36522H17.95C17.95 4.10215 17.859 3.87216 17.6759 3.68905L17.3931 3.97189ZM17 3.81522C17.1627 3.81522 17.2891 3.86789 17.3931 3.97189L17.6759 3.68905C17.4929 3.50605 17.263 3.41522 17 3.41522V3.81522ZM3 3.81522H17V3.41522H3V3.81522ZM2.60692 3.97189C2.71093 3.86789 2.83733 3.81522 3 3.81522V3.41522C2.737 3.41522 2.50707 3.50605 2.32408 3.68905L2.60692 3.97189ZM2.45 4.36522C2.45 4.20262 2.5027 4.07611 2.60692 3.97189L2.32408 3.68905C2.14096 3.87216 2.05 4.10215 2.05 4.36522H2.45ZM2.60684 4.75822C2.5027 4.65419 2.45 4.52782 2.45 4.36522H2.05C2.05 4.62829 2.14097 4.85824 2.32416 5.04122L2.60684 4.75822ZM6 2.03047C5.83733 2.03047 5.71093 1.9778 5.60692 1.8738L5.32408 2.15664C5.50707 2.33964 5.737 2.43047 6 2.43047V2.03047ZM14 2.03047H6V2.43047H14V2.03047ZM14.3931 1.8738C14.2891 1.9778 14.1627 2.03047 14 2.03047V2.43047C14.263 2.43047 14.4929 2.33964 14.6759 2.15664L14.3931 1.8738ZM14.55 1.48047C14.55 1.64307 14.4973 1.76958 14.3931 1.8738L14.6759 2.15664C14.859 1.97353 14.95 1.74354 14.95 1.48047H14.55ZM14.3932 1.08747C14.4973 1.19149 14.55 1.31787 14.55 1.48047H14.95C14.95 1.2174 14.859 0.987444 14.6758 0.804465L14.3932 1.08747ZM14 0.930469C14.1626 0.930469 14.289 0.983165 14.393 1.08731L14.676 0.804629C14.493 0.621438 14.2631 0.530469 14 0.530469V0.930469ZM6 0.930469H14V0.530469H6V0.930469ZM5.607 1.08731C5.71102 0.983166 5.8374 0.930469 6 0.930469V0.530469C5.73693 0.530469 5.50697 0.621438 5.324 0.804629L5.607 1.08731ZM5.45 1.48047C5.45 1.31787 5.5027 1.19149 5.60684 1.08747L5.32416 0.804465C5.14097 0.987444 5.05 1.2174 5.05 1.48047H5.45ZM5.60692 1.8738C5.5027 1.76958 5.45 1.64307 5.45 1.48047H5.05C5.05 1.74354 5.14096 1.97353 5.32408 2.15664L5.60692 1.8738ZM8.37123 14.594L7.96591 16.2038L8.3538 16.3015L8.75912 14.6917L8.37123 14.594ZM10.4849 14.4429H8.56517V14.8429H10.4849V14.4429ZM10.3181 16.1343L10.6789 14.6914L10.2908 14.5944L9.93009 16.0372L10.3181 16.1343ZM10.3393 16.2455C10.3095 16.2083 10.3051 16.1802 10.3164 16.1409L9.93188 16.0306C9.88373 16.1983 9.91862 16.36 10.0269 16.4954L10.3393 16.2455ZM10.4491 16.3C10.403 16.3 10.3713 16.2856 10.3393 16.2456L10.0269 16.4953C10.1329 16.628 10.2786 16.7 10.4491 16.7V16.3ZM10.5333 16.2761C10.5166 16.2891 10.4925 16.3 10.4491 16.3V16.7C10.5688 16.7 10.6828 16.6668 10.7793 16.5916L10.5333 16.2761ZM10.5718 16.2088C10.5636 16.2451 10.5497 16.2634 10.5334 16.2761L10.7793 16.5916C10.8759 16.5162 10.9357 16.4137 10.962 16.2965L10.5718 16.2088ZM10.9784 14.594L10.573 16.2038L10.9609 16.3015L11.3663 14.6917L10.9784 14.594ZM12.6697 14.4429H11.1724V14.8429H12.6697V14.4429ZM12.7662 14.4123C12.7395 14.4323 12.7098 14.4429 12.6697 14.4429V14.8429C12.7926 14.8429 12.9073 14.8064 13.0061 14.7323L12.7662 14.4123ZM12.8166 14.3314C12.8066 14.3714 12.7895 14.3948 12.7663 14.4122L13.006 14.7324C13.1084 14.6557 13.1743 14.5505 13.2048 14.4276L12.8166 14.3314ZM12.793 14.204C12.8233 14.2421 12.8312 14.2765 12.8175 14.3278L13.2039 14.4312C13.2497 14.2598 13.2168 14.0942 13.106 13.9549L12.793 14.204ZM12.6697 14.1464C12.7265 14.1464 12.7615 14.1643 12.793 14.2039L13.1061 13.955C12.9966 13.8172 12.845 13.7464 12.6697 13.7464V14.1464ZM11.3465 14.1464H12.6697V13.7464H11.3465V14.1464ZM11.6257 12.0051L11.1524 13.8979L11.5405 13.9949L12.0137 12.1021L11.6257 12.0051ZM13.317 11.8536H11.8197V12.2536H13.317V11.8536ZM13.4136 11.8229C13.3867 11.843 13.357 11.8536 13.317 11.8536V12.2536C13.4399 12.2536 13.5545 12.2171 13.6533 12.1431L13.4136 11.8229ZM13.4639 11.7419C13.4539 11.7822 13.4367 11.8056 13.4136 11.8229L13.6533 12.1431C13.7557 12.0664 13.8216 11.9613 13.8521 11.8384L13.4639 11.7419ZM13.4403 11.6146C13.4707 11.6528 13.4785 11.6873 13.4648 11.7385L13.8512 11.8419C13.8971 11.6706 13.8641 11.505 13.7534 11.3657L13.4403 11.6146ZM13.317 11.5571C13.3738 11.5571 13.4088 11.575 13.4403 11.6146L13.7534 11.3657C13.6439 11.2279 13.4923 11.1571 13.317 11.1571V11.5571ZM11.9938 11.5571H13.317V11.1571H11.9938V11.5571ZM12.1604 9.86576L11.7998 11.3086L12.1878 11.4056L12.5485 9.96275L12.1604 9.86576ZM12.1394 9.75447C12.1691 9.79162 12.1735 9.81966 12.1622 9.85895L12.5466 9.96956C12.5949 9.80179 12.5601 9.64001 12.4517 9.5046L12.1394 9.75447ZM12.0294 9.7C12.0755 9.7 12.1073 9.71441 12.1394 9.75449L12.4517 9.50458C12.3456 9.37194 12.2 9.3 12.0294 9.3V9.7ZM11.9453 9.72388C11.962 9.71085 11.9861 9.7 12.0294 9.7V9.3C11.9097 9.3 11.7958 9.33326 11.6994 9.40844L11.9453 9.72388ZM11.9068 9.79121C11.9149 9.75495 11.9288 9.73671 11.9452 9.72398L11.6995 9.40834C11.6027 9.48366 11.5428 9.58622 11.5165 9.70348L11.9068 9.79121ZM11.5002 11.406L11.9056 9.79618L11.5177 9.69851L11.1124 11.3083L11.5002 11.406ZM9.38661 11.5571H11.3063V11.1571H9.38661V11.5571ZM9.55333 9.86575L9.19258 11.3086L9.58063 11.4056L9.94138 9.96277L9.55333 9.86575ZM9.53222 9.75447C9.56197 9.79166 9.5664 9.81977 9.55511 9.85909L9.93959 9.96943C9.98774 9.80167 9.95286 9.63996 9.84456 9.5046L9.53222 9.75447ZM9.42235 9.7C9.46847 9.7 9.50019 9.7144 9.53216 9.75441L9.84462 9.50466C9.73855 9.37196 9.59291 9.3 9.42235 9.3V9.7ZM9.33815 9.72388C9.35483 9.71087 9.37894 9.7 9.42235 9.7V9.3C9.30265 9.3 9.18864 9.33323 9.09219 9.40844L9.33815 9.72388ZM9.29968 9.79121C9.30785 9.75487 9.32181 9.73661 9.33812 9.7239L9.09222 9.40842C8.99555 9.48377 8.93576 9.58631 8.90942 9.70348L9.29968 9.79121ZM8.89306 11.406L9.2985 9.79619L8.91061 9.6985L8.50517 11.3083L8.89306 11.406ZM7.2018 11.5571H8.69912V11.1571H7.2018V11.5571ZM7.1053 11.5877C7.13199 11.5677 7.16165 11.5571 7.2018 11.5571V11.1571C7.07883 11.1571 6.96418 11.1936 6.86536 11.2677L7.1053 11.5877ZM7.05491 11.6686C7.06484 11.6286 7.08196 11.6052 7.10521 11.5878L6.86546 11.2676C6.76303 11.3443 6.69713 11.4495 6.66666 11.5724L7.05491 11.6686ZM7.07845 11.796C7.04815 11.7579 7.04025 11.7235 7.05399 11.6722L6.66758 11.5688C6.62174 11.7402 6.65463 11.9058 6.76546 12.0451L7.07845 11.796ZM7.2018 11.8536C7.14496 11.8536 7.10999 11.8357 7.07852 11.7961L6.7654 12.045C6.87491 12.1828 7.02651 12.2536 7.2018 12.2536V11.8536ZM8.52501 11.8536H7.2018V12.2536H8.52501V11.8536ZM8.24582 13.9949L8.71904 12.1021L8.33098 12.0051L7.85776 13.8979L8.24582 13.9949ZM6.55448 14.1464H8.05179V13.7464H6.55448V14.1464ZM6.45788 14.1771C6.48473 14.157 6.51445 14.1464 6.55448 14.1464V13.7464C6.43154 13.7464 6.31695 13.7829 6.21813 13.8569L6.45788 14.1771ZM6.40755 14.2581C6.41757 14.2178 6.43476 14.1944 6.45785 14.1771L6.21816 13.8569C6.11574 13.9336 6.0499 14.0387 6.01937 14.1616L6.40755 14.2581ZM6.43118 14.3854C6.40078 14.3472 6.39295 14.3127 6.40666 14.2615L6.02026 14.1581C5.97439 14.3294 6.00733 14.495 6.11808 14.6343L6.43118 14.3854ZM6.55448 14.4429C6.49763 14.4429 6.46267 14.425 6.43119 14.3854L6.11807 14.6343C6.22758 14.7721 6.37918 14.8429 6.55448 14.8429V14.4429ZM7.87768 14.4429H6.55448V14.8429H7.87768V14.4429ZM7.71108 16.1342L8.07172 14.6914L7.68365 14.5944L7.32302 16.0372L7.71108 16.1342ZM7.73207 16.2455C7.70236 16.2084 7.69795 16.1803 7.70925 16.141L7.32485 16.0304C7.27657 16.1982 7.31139 16.36 7.41973 16.4954L7.73207 16.2455ZM7.84205 16.3C7.79593 16.3 7.76413 16.2856 7.73206 16.2455L7.41974 16.4954C7.52587 16.6281 7.6715 16.7 7.84205 16.7V16.3ZM7.92614 16.2761C7.90942 16.2892 7.88534 16.3 7.84205 16.3V16.7C7.96172 16.7 8.07569 16.6667 8.1721 16.5916L7.92614 16.2761ZM7.96472 16.2088C7.95657 16.2451 7.94263 16.2633 7.92627 16.276L8.17197 16.5917C8.26874 16.5163 8.32862 16.4138 8.35498 16.2965L7.96472 16.2088ZM8.73928 14.1464H10.659V13.7464H8.73928V14.1464ZM9.01847 12.0051L8.54525 13.8979L8.93331 13.9949L9.40653 12.1021L9.01847 12.0051ZM11.1322 11.8536H9.2125V12.2536H11.1322V11.8536ZM10.853 13.9949L11.3262 12.1021L10.9382 12.0051L10.4649 13.8979L10.853 13.9949Z" fill="white"/>
</svg>
