<svg width="11" height="7" viewBox="0 0 11 7" fill="none" xmlns="http://www.w3.org/2000/svg">
<path d="M5.66454 5.27878L9.73754 1.20553C9.87604 1.0672 10.0501 0.996365 10.2598 0.993031C10.4693 0.989865 10.6465 1.0607 10.7915 1.20553C10.9364 1.35053 11.0088 1.5262 11.0088 1.73253C11.0088 1.93886 10.9364 2.11453 10.7915 2.25953L6.29729 6.75378C6.20362 6.84728 6.10487 6.91328 6.00104 6.95178C5.8972 6.99028 5.78504 7.00953 5.66454 7.00953C5.54404 7.00953 5.43187 6.99028 5.32804 6.95178C5.22421 6.91328 5.12545 6.84728 5.03179 6.75378L0.537538 2.25953C0.399204 2.12103 0.328371 1.94695 0.325038 1.73728C0.321872 1.52778 0.392705 1.35053 0.537538 1.20553C0.682538 1.0607 0.858204 0.988281 1.06454 0.988281C1.27087 0.988281 1.44654 1.0607 1.59154 1.20553L5.66454 5.27878Z" fill="white"/>
</svg>
