<svg width="26" height="26" viewBox="0 0 26 26" fill="none" xmlns="http://www.w3.org/2000/svg">
<path d="M12.985 20.4877C13.3657 20.4877 13.6872 20.3563 13.9497 20.0937C14.2121 19.8308 14.3433 19.5089 14.3433 19.128C14.3433 18.7473 14.2119 18.4258 13.949 18.1633C13.6861 17.9011 13.3643 17.77 12.9837 17.77C12.603 17.77 12.2815 17.9014 12.019 18.1643C11.7566 18.4272 11.6253 18.749 11.6253 19.1297C11.6253 19.5103 11.7568 19.8319 12.0197 20.0943C12.2826 20.3565 12.6043 20.4877 12.985 20.4877ZM13.002 25.6673C11.25 25.6673 9.60323 25.3349 8.06167 24.67C6.52012 24.0051 5.17923 23.1028 4.03901 21.963C2.89879 20.8232 1.99601 19.4829 1.33067 17.942C0.665563 16.4011 0.333008 14.7548 0.333008 13.003C0.333008 11.251 0.665452 9.60421 1.33034 8.06265C1.99523 6.5211 2.89756 5.18021 4.03734 4.03998C5.17712 2.89976 6.51745 1.99698 8.05834 1.33165C9.59923 0.66654 11.2456 0.333984 12.9973 0.333984C14.7493 0.333984 16.3961 0.666428 17.9377 1.33132C19.4792 1.99621 20.8201 2.89854 21.9603 4.03832C23.1006 5.1781 24.0033 6.51843 24.6687 8.05932C25.3338 9.60021 25.6663 11.2465 25.6663 12.9983C25.6663 14.7503 25.3339 16.3971 24.669 17.9387C24.0041 19.4802 23.1018 20.8211 21.962 21.9613C20.8222 23.1015 19.4819 24.0043 17.941 24.6697C16.4001 25.3348 14.7538 25.6673 13.002 25.6673ZM12.9997 23.6673C15.9775 23.6673 18.4997 22.634 20.5663 20.5673C22.633 18.5007 23.6663 15.9784 23.6663 13.0007C23.6663 10.0229 22.633 7.50065 20.5663 5.43398C18.4997 3.36732 15.9775 2.33398 12.9997 2.33398C10.0219 2.33398 7.49967 3.36732 5.43301 5.43398C3.36634 7.50065 2.33301 10.0229 2.33301 13.0007C2.33301 15.9784 3.36634 18.5007 5.43301 20.5673C7.49967 22.634 10.0219 23.6673 12.9997 23.6673ZM13.1077 7.29299C13.7228 7.29299 14.2551 7.48665 14.7047 7.87399C15.1545 8.26132 15.3793 8.74543 15.3793 9.32632C15.3793 9.81521 15.2357 10.2528 14.9483 10.639C14.6612 11.0254 14.333 11.3853 13.9637 11.7187C13.4797 12.148 13.0536 12.6203 12.6853 13.1357C12.3171 13.6508 12.1202 14.2245 12.0947 14.857C12.086 15.0999 12.1715 15.3033 12.351 15.4673C12.5306 15.6313 12.7399 15.7133 12.979 15.7133C13.2355 15.7133 13.4526 15.6279 13.6303 15.457C13.8081 15.2861 13.9218 15.0768 13.9713 14.829C14.0602 14.3708 14.2496 13.9627 14.5393 13.6047C14.8291 13.2464 15.143 12.9059 15.481 12.583C15.967 12.1092 16.3911 11.5928 16.7533 11.0337C17.1158 10.4743 17.297 9.85054 17.297 9.16232C17.297 8.10587 16.8808 7.23787 16.0483 6.55832C15.2159 5.87898 14.2441 5.53932 13.133 5.53932C12.3399 5.53932 11.592 5.71487 10.8893 6.06599C10.1869 6.41732 9.6399 6.92976 9.24834 7.60332C9.12701 7.81021 9.08812 8.02787 9.13167 8.25632C9.17501 8.48498 9.29223 8.65854 9.48334 8.77698C9.72668 8.91232 9.97656 8.95099 10.233 8.89299C10.4895 8.83476 10.7073 8.68865 10.8867 8.45465C11.1569 8.10421 11.4839 7.82298 11.8677 7.61098C12.2515 7.39898 12.6648 7.29299 13.1077 7.29299Z" fill="#D4D3D3"/>
</svg>
