<svg width="13" height="16" viewBox="0 0 13 16" fill="none" xmlns="http://www.w3.org/2000/svg">
<path d="M6.20125 13.3198L2.41443 14.9453C1.83963 15.1911 1.29352 15.144 0.776111 14.8041C0.258703 14.4641 0 13.9859 0 13.3694V1.72466C0 1.24272 0.166957 0.834784 0.50087 0.50087C0.834784 0.166957 1.24272 0 1.72466 0H10.6778C11.1598 0 11.5677 0.166957 11.9016 0.50087C12.2356 0.834784 12.4025 1.24272 12.4025 1.72466V13.3694C12.4025 13.9859 12.1438 14.4641 11.6264 14.8041C11.109 15.144 10.5629 15.1911 9.98807 14.9453L6.20125 13.3198ZM6.20125 11.7347L10.5586 13.6115C10.6565 13.6543 10.7498 13.6451 10.8384 13.5841C10.9271 13.5229 10.9714 13.4403 10.9714 13.3363V1.72466C10.9714 1.6512 10.9408 1.58394 10.8796 1.52288C10.8186 1.46167 10.7513 1.43106 10.6778 1.43106H1.72466C1.6512 1.43106 1.58394 1.46167 1.52288 1.52288C1.46167 1.58394 1.43106 1.6512 1.43106 1.72466V13.3363C1.43106 13.4403 1.47542 13.5229 1.56415 13.5841C1.65271 13.6451 1.74597 13.6543 1.84392 13.6115L6.20125 11.7347ZM6.20125 1.43106H1.43106H10.9714H6.20125Z" fill="#C7C7C7"/>
</svg>
