<svg width="16" height="18" viewBox="0 0 16 18" fill="none" xmlns="http://www.w3.org/2000/svg">
<path d="M0 15.3494V6.43686C0 6.12327 0.0701452 5.82618 0.210436 5.5456C0.350726 5.26502 0.544657 5.03395 0.792229 4.8524L6.73394 0.396114C7.08054 0.132038 7.47666 0 7.92229 0C8.36791 0 8.76403 0.132038 9.11063 0.396114L15.0523 4.8524C15.2999 5.03395 15.4938 5.26502 15.6341 5.5456C15.7744 5.82618 15.8446 6.12327 15.8446 6.43686V15.3494C15.8446 15.8941 15.6506 16.3603 15.2628 16.7482C14.8749 17.1361 14.4087 17.33 13.864 17.33H10.8931C10.6126 17.33 10.3774 17.2351 10.1876 17.0453C9.99776 16.8555 9.90286 16.6203 9.90286 16.3397V11.3883C9.90286 11.1077 9.80795 10.8725 9.61815 10.6827C9.42835 10.4929 9.19315 10.398 8.91257 10.398H6.932C6.65142 10.398 6.41623 10.4929 6.22642 10.6827C6.03662 10.8725 5.94171 11.1077 5.94171 11.3883V16.3397C5.94171 16.6203 5.84681 16.8555 5.65701 17.0453C5.4672 17.2351 5.23201 17.33 4.95143 17.33H1.98057C1.43591 17.33 0.969655 17.1361 0.581793 16.7482C0.193931 16.3603 0 15.8941 0 15.3494Z" fill="white"/>
</svg>
