<svg width="20" height="20" viewBox="0 0 20 20" fill="none" xmlns="http://www.w3.org/2000/svg">
<path d="M2.30775 19.499C1.80258 19.499 1.375 19.324 1.025 18.974C0.675 18.624 0.5 18.1965 0.5 17.6913V4.3068C0.5 3.80163 0.675 3.37405 1.025 3.02405C1.375 2.67405 1.80258 2.49905 2.30775 2.49905H9.15975C9.40975 2.49905 9.59725 2.57755 9.72225 2.73455C9.84725 2.89171 9.90975 3.06321 9.90975 3.24905C9.90975 3.43488 9.84467 3.60638 9.7145 3.76355C9.58433 3.92055 9.39425 3.99905 9.14425 3.99905H2.30775C2.23075 3.99905 2.16025 4.03113 2.09625 4.0953C2.03208 4.1593 2 4.2298 2 4.3068V17.6913C2 17.7683 2.03208 17.8388 2.09625 17.9028C2.16025 17.967 2.23075 17.999 2.30775 17.999H15.6923C15.7692 17.999 15.8398 17.967 15.9038 17.9028C15.9679 17.8388 16 17.7683 16 17.6913V10.7913C16 10.5413 16.0785 10.3538 16.2355 10.2288C16.3927 10.1038 16.5642 10.0413 16.75 10.0413C16.9358 10.0413 17.1073 10.1038 17.2645 10.2288C17.4215 10.3538 17.5 10.5413 17.5 10.7913V17.6913C17.5 18.1965 17.325 18.624 16.975 18.974C16.625 19.324 16.1974 19.499 15.6923 19.499H2.30775ZM6.5 12.595V10.8145C6.5 10.5734 6.54683 10.3416 6.6405 10.1193C6.734 9.8968 6.86283 9.70355 7.027 9.53955L15.5598 1.0068C15.7148 0.85163 15.8853 0.738463 16.0712 0.667296C16.2571 0.596129 16.4462 0.560547 16.6385 0.560547C16.8347 0.560547 17.0231 0.596129 17.2038 0.667296C17.3846 0.738463 17.5493 0.848379 17.698 0.997046L18.9538 2.24905C19.0986 2.40421 19.2098 2.57538 19.2875 2.76255C19.365 2.94971 19.4038 3.13946 19.4038 3.3318C19.4038 3.52413 19.3708 3.71063 19.3048 3.8913C19.2388 4.07213 19.1282 4.24005 18.973 4.39505L10.4115 12.9568C10.2473 13.1208 10.0541 13.2522 9.83175 13.351C9.60925 13.4497 9.3775 13.499 9.1365 13.499H7.404C7.14617 13.499 6.93108 13.4128 6.75875 13.2403C6.58625 13.068 6.5 12.8529 6.5 12.595ZM8 11.999H9.24625L15.4788 5.7663L14.8558 5.1433L14.1885 4.50105L8 10.6895V11.999Z" fill="#D4D3D3"/>
</svg>
