<svg width="22" height="22" viewBox="0 0 22 22" fill="none" xmlns="http://www.w3.org/2000/svg">
<path d="M9.75033 12.2493H1.41699C1.06283 12.2493 0.76602 12.1295 0.526576 11.8898C0.286853 11.65 0.166992 11.3531 0.166992 10.9989C0.166992 10.6445 0.286853 10.3477 0.526576 10.1085C0.76602 9.86907 1.06283 9.74935 1.41699 9.74935H9.75033V1.41602C9.75033 1.06185 9.87019 0.765044 10.1099 0.525599C10.3496 0.285877 10.6466 0.166016 11.0007 0.166016C11.3552 0.166016 11.652 0.285877 11.8912 0.525599C12.1306 0.765044 12.2503 1.06185 12.2503 1.41602V9.74935H20.5837C20.9378 9.74935 21.2346 9.86921 21.4741 10.1089C21.7138 10.3487 21.8337 10.6456 21.8337 10.9998C21.8337 11.3542 21.7138 11.651 21.4741 11.8902C21.2346 12.1296 20.9378 12.2493 20.5837 12.2493H12.2503V20.5827C12.2503 20.9368 12.1305 21.2337 11.8907 21.4731C11.651 21.7128 11.3541 21.8327 10.9999 21.8327C10.6455 21.8327 10.3487 21.7128 10.1095 21.4731C9.87005 21.2337 9.75033 20.9368 9.75033 20.5827V12.2493Z" fill="#C7C7C7"/>
</svg>
