<svg width="26" height="26" viewBox="0 0 26 26" fill="none" xmlns="http://www.w3.org/2000/svg">
<path d="M13.9997 12.5957V7.33398C13.9997 7.05065 13.9038 6.8131 13.712 6.62132C13.5202 6.42976 13.2827 6.33398 12.9993 6.33398C12.7158 6.33398 12.4783 6.42976 12.287 6.62132C12.0955 6.8131 11.9997 7.05065 11.9997 7.33398V12.9033C11.9997 13.0602 12.0288 13.2122 12.087 13.3593C12.145 13.5064 12.2365 13.6424 12.3613 13.7673L16.928 18.334C17.1125 18.5187 17.3445 18.6131 17.624 18.6173C17.9036 18.6215 18.1399 18.5271 18.333 18.334C18.5261 18.1409 18.6227 17.9067 18.6227 17.6313C18.6227 17.3562 18.5261 17.1221 18.333 16.929L13.9997 12.5957ZM13.002 25.6673C11.25 25.6673 9.60323 25.3349 8.06167 24.67C6.52012 24.0051 5.17923 23.1028 4.03901 21.963C2.89879 20.8232 1.99601 19.4829 1.33067 17.942C0.665563 16.4011 0.333008 14.7548 0.333008 13.003C0.333008 11.251 0.665452 9.60421 1.33034 8.06265C1.99523 6.5211 2.89756 5.18021 4.03734 4.03998C5.17712 2.89976 6.51745 1.99698 8.05834 1.33165C9.59923 0.66654 11.2456 0.333984 12.9973 0.333984C14.7493 0.333984 16.3961 0.666428 17.9377 1.33132C19.4792 1.99621 20.8201 2.89854 21.9603 4.03832C23.1006 5.1781 24.0033 6.51843 24.6687 8.05932C25.3338 9.60021 25.6663 11.2465 25.6663 12.9983C25.6663 14.7503 25.3339 16.3971 24.669 17.9387C24.0041 19.4802 23.1018 20.8211 21.962 21.9613C20.8222 23.1015 19.4819 24.0043 17.941 24.6697C16.4001 25.3348 14.7538 25.6673 13.002 25.6673ZM12.9997 23.6673C15.9552 23.6673 18.4719 22.6284 20.5497 20.5507C22.6275 18.4729 23.6663 15.9562 23.6663 13.0007C23.6663 10.0451 22.6275 7.52843 20.5497 5.45065C18.4719 3.37287 15.9552 2.33398 12.9997 2.33398C10.0441 2.33398 7.52745 3.37287 5.44967 5.45065C3.3719 7.52843 2.33301 10.0451 2.33301 13.0007C2.33301 15.9562 3.3719 18.4729 5.44967 20.5507C7.52745 22.6284 10.0441 23.6673 12.9997 23.6673Z" fill="#919191"/>
</svg>
