<svg width="22" height="16" viewBox="0 0 22 16" fill="none" xmlns="http://www.w3.org/2000/svg">
<path d="M0.798828 13.0837C0.798828 12.5683 0.931828 12.1084 1.19783 11.7039C1.46383 11.2994 1.81908 10.9847 2.26358 10.7599C3.21391 10.2951 4.1695 9.93666 5.13033 9.68466C6.09133 9.43282 7.14741 9.30691 8.29858 9.30691C9.44991 9.30691 10.506 9.43282 11.4668 9.68466C12.4278 9.93666 13.3835 10.2951 14.3338 10.7599C14.7783 10.9847 15.1336 11.2994 15.3996 11.7039C15.6656 12.1084 15.7986 12.5683 15.7986 13.0837V13.7877C15.7986 14.1902 15.6508 14.544 15.3553 14.8492C15.0598 15.1543 14.7012 15.3069 14.2793 15.3069H2.31783C1.89616 15.3069 1.53758 15.1592 1.24208 14.8637C0.946578 14.568 0.798828 14.2093 0.798828 13.7877V13.0837ZM19.6833 15.3069H17.4121C17.5377 15.0774 17.6336 14.8332 17.6996 14.5742C17.7656 14.3152 17.7986 14.053 17.7986 13.7877V12.9607C17.7986 12.3043 17.6379 11.6787 17.3166 11.0839C16.9951 10.4892 16.5391 9.97899 15.9486 9.55316C16.6191 9.65316 17.2557 9.80791 17.8583 10.0174C18.4608 10.2271 19.0358 10.4748 19.5833 10.7607C20.1 11.0363 20.499 11.3612 20.7803 11.7354C21.0617 12.1094 21.2023 12.5178 21.2023 12.9607V13.7877C21.2023 14.2093 21.0546 14.568 20.7591 14.8637C20.4636 15.1592 20.105 15.3069 19.6833 15.3069ZM8.29858 7.69141C7.33608 7.69141 6.51216 7.34874 5.82683 6.66341C5.1415 5.97791 4.79883 5.15391 4.79883 4.19141C4.79883 3.22891 5.1415 2.40499 5.82683 1.71966C6.51216 1.03416 7.33608 0.691406 8.29858 0.691406C9.26108 0.691406 10.0851 1.03416 10.7706 1.71966C11.4559 2.40499 11.7986 3.22891 11.7986 4.19141C11.7986 5.15391 11.4559 5.97791 10.7706 6.66341C10.0851 7.34874 9.26108 7.69141 8.29858 7.69141ZM16.9331 4.19141C16.9331 5.15391 16.5904 5.97791 15.9051 6.66341C15.2197 7.34874 14.3958 7.69141 13.4333 7.69141C13.3205 7.69141 13.1769 7.67857 13.0026 7.65291C12.8281 7.62724 12.6845 7.59907 12.5718 7.56841C12.9662 7.09424 13.2692 6.56824 13.4811 5.99041C13.6927 5.41257 13.7986 4.81257 13.7986 4.19041C13.7986 3.56807 13.6906 2.97032 13.4746 2.39716C13.2586 1.82416 12.9577 1.29666 12.5718 0.814656C12.7153 0.763323 12.8589 0.729989 13.0026 0.714656C13.1461 0.699156 13.2897 0.691406 13.4333 0.691406C14.3958 0.691406 15.2197 1.03416 15.9051 1.71966C16.5904 2.40499 16.9331 3.22891 16.9331 4.19141ZM2.29858 13.8069H14.2986V13.0837C14.2986 12.8748 14.2463 12.689 14.1418 12.5262C14.0375 12.3633 13.8718 12.221 13.6448 12.0992C12.8218 11.6748 11.9744 11.3533 11.1026 11.1347C10.2307 10.9162 9.29608 10.8069 8.29858 10.8069C7.30125 10.8069 6.36666 10.9162 5.49483 11.1347C4.623 11.3533 3.77558 11.6748 2.95258 12.0992C2.72558 12.221 2.55983 12.3633 2.45533 12.5262C2.35083 12.689 2.29858 12.8748 2.29858 13.0837V13.8069ZM8.29858 6.19141C8.84858 6.19141 9.31941 5.99557 9.71108 5.60391C10.1027 5.21224 10.2986 4.74141 10.2986 4.19141C10.2986 3.64141 10.1027 3.17057 9.71108 2.77891C9.31941 2.38724 8.84858 2.19141 8.29858 2.19141C7.74858 2.19141 7.27775 2.38724 6.88608 2.77891C6.49441 3.17057 6.29858 3.64141 6.29858 4.19141C6.29858 4.74141 6.49441 5.21224 6.88608 5.60391C7.27775 5.99557 7.74858 6.19141 8.29858 6.19141Z" fill="white"/>
</svg>
